<?xml version="1.0" encoding="UTF-8"?> <svg xmlns="http://www.w3.org/2000/svg" viewBox="0 0 331.67 73.51"><path d="M331.67,73h-6.1L314.83,61.5V73h-4.55V42.15h4.55V60.41l10.29-10.7h6.06L319.75,60.89ZM283.05,61.34c0-7,4.8-12.08,11.51-12.08,5.85,0,9.35,2.69,10.81,8l-3.9.78c-1.14-3.3-3.29-4.88-6.71-4.88-4.23,0-7.15,3.33-7.15,8.21s2.92,8.17,7.15,8.17a6.7,6.7,0,0,0,6.63-4.84l3.9.78c-1.26,5-5.16,8-10.73,8C287.85,73.42,283.05,68.38,283.05,61.34ZM273.18,43.9a2.42,2.42,0,0,1,2.39-2.46l.3,0a2.45,2.45,0,1,1-2.67,2.69A2.11,2.11,0,0,1,273.18,43.9ZM273.59,73V49.71h4.52V73ZM240,73l-8.94-23.26H236l6.46,17.93,6-17.93h3.58l6,17.93,6.46-17.93h5l-9,23.26h-4.6l-5.61-17-5.61,17ZM204,61.34c0-8,4.88-12.08,10.66-12.08,3.66,0,7,1.79,8.25,5V42.15h4.55V73h-4.55V68.54a8.63,8.63,0,0,1-8.21,5c-5.78,0-10.7-4.11-10.7-12.16Zm19,0c0-5.08-2.92-8.21-7.28-8.21s-7.19,3.09-7.19,8.21,2.93,8.25,7.28,8.25S223,66.46,223,61.34ZM177.71,73V49.71h4.56v4.23c1-2.89,3.7-4.63,7.6-4.63,6.42,0,9.39,3.7,9.39,11.06V73h-4.55V60.73c0-5.08-2-7.48-6.26-7.48s-6.18,2.89-6.18,8V73ZM148,61.34c0-8,4.87-12.08,10.65-12.08,3.66,0,6.91,1.79,8.25,5V49.71h4.56V73h-4.56V68.54a8.63,8.63,0,0,1-8.21,5C153,73.5,148,69.39,148,61.34Zm19,0c0-5.08-3-8.21-7.27-8.21s-7.2,3.09-7.2,8.21,2.93,8.25,7.28,8.25S167.06,66.46,167.06,61.34ZM121.77,73V42.15h4.56V53.94c.93-2.72,3.45-4.63,7.6-4.63,6.14,0,9.39,3.33,9.39,11.06V73h-4.55V60.73c0-5.2-2-7.48-6.26-7.48s-6.18,2.76-6.18,8V73Zm-28-7.56,4.43-.9c1.22,3,4,4.76,7.77,4.76,4.06,0,6.38-1.63,6.38-4.43,0-7-17.32-2.12-17.32-13.46,0-4.92,4.15-8.3,10.21-8.3s10,2.65,11.5,7.57l-4.31.85c-1.26-2.8-3.53-4.23-7.07-4.23s-5.77,1.55-5.77,4.11c0,7.32,17.4,1.95,17.4,13.46,0,5.16-4.31,8.54-11,8.54-6.14,0-10.74-2.93-12.24-8ZM219.88,30.82V7.56h4.56v3.91c.89-2.48,3.33-4.76,8.17-4.07l-.49,4.39c-5.2-1-7.68,1.83-7.68,7.52V30.82ZM191.42,19.19c0-7.15,4.8-12.07,11.75-12.07,7.4,0,11.87,5.44,11.3,13.25H196c.17,4.51,3,7.08,7.49,7.08,3.25,0,5.36-1.1,6.5-3.34l4.19.65c-1.87,4.31-5.53,6.51-10.78,6.51C196.14,31.27,191.42,26.47,191.42,19.19Zm18.79-2.4c-.33-3.7-2.85-6.06-7-6.06-3.9,0-6.63,2-7.15,6.06Zm-41.92,9.6,0,4.47h-4.55l0-30.86h4.55V12.08c1.31-3.18,4.56-5,8.22-5,5.73,0,10.69,4.06,10.69,12.07s-5,12.16-10.65,12.16C172.89,31.35,169.59,29.52,168.29,26.39Zm14.36-7.2c0-5.08-2.93-8.21-7.28-8.21s-7.2,3.09-7.2,8.21,2.93,8.26,7.28,8.26,7.2-3.14,7.2-8.26Zm-47.54,0c0-7.15,4.8-12.07,11.75-12.07,7.4,0,11.87,5.44,11.31,13.25H139.66c.17,4.51,3,7.08,7.49,7.08,3.25,0,5.36-1.1,6.5-3.34l4.19.65c-1.87,4.31-5.53,6.51-10.77,6.51-7.24,0-12-4.8-12-12.08Zm18.79-2.4c-.33-3.7-2.85-6.06-7-6.06-3.9,0-6.62,2-7.15,6.06Zm-51.56,14L92.42,1.42H97.5l7.28,22.73,6.71-22.73h4l6.75,22.73,7.32-22.73h5.08l-10,29.4h-4.47L113.48,8.17l-6.67,22.65ZM0,1.37v72H33.75V39.62a2.25,2.25,0,0,1,4.5,0V73.37H72v-72H51.75V35.12a2.25,2.25,0,1,1-4.5,0V1.37H24.75V35.12a2.25,2.25,0,0,1-4.5,0V1.37Z"></path></svg> 